<svg width="103" height="114" viewBox="0 0 103 114" fill="none" xmlns="http://www.w3.org/2000/svg">
<path fill-rule="evenodd" clip-rule="evenodd" d="M54.0008 0.652085C52.4455 -0.217362 50.5545 -0.217362 48.9992 0.652085L2.64895 26.5612L2.61259 26.6234L2.53828 26.6243C0.965574 27.5554 0 29.2549 0 31.0909V82.9086C0 84.7906 1.01398 86.5244 2.64895 87.438L48.9363 113.312C50.5004 114.216 52.4224 114.231 54.0008 113.348L100.351 87.439C101.986 86.525 103 84.7911 103 82.9091V31.0909C103 29.2549 102.034 27.5559 100.462 26.6249C100.423 26.602 100.384 26.5797 100.345 26.558L54.0008 0.652085ZM15.755 31.0907L51.5005 51.072L64.3003 43.9169L29.5762 23.3647L15.755 31.0907ZM74.7481 38.0768L87.2456 31.0909L51.5 11.1096L40.0238 17.5247L74.7481 38.0768ZM10.3 79.8596V39.8975L46.35 60.049V100.011L10.3 79.8596ZM56.65 100.012V60.049L92.7 39.8975V79.8601L56.65 100.012Z" fill="white"/>
</svg>
