<svg width="100" height="92" viewBox="0 0 100 92" fill="none" xmlns="http://www.w3.org/2000/svg">
<path d="M49.5834 0C39.7767 0 30.1903 2.68808 22.0363 7.72431C13.8824 12.7605 7.52717 19.9187 3.77433 28.2937C0.0214837 36.6686 -0.960432 45.8842 0.952752 54.775C2.86594 63.6658 7.58829 71.8325 14.5226 78.2424C21.457 84.6523 30.2919 89.0175 39.9101 90.786C49.5284 92.5545 59.4979 91.6468 68.5581 88.1778C77.6182 84.7088 85.3621 78.8342 90.8104 71.297C96.2587 63.7597 99.1667 54.8983 99.1667 45.8333C99.1667 39.8144 97.8842 33.8544 95.3924 28.2937C92.9006 22.7329 89.2483 17.6803 84.6441 13.4243C80.0398 9.16825 74.5738 5.7922 68.5581 3.48885C62.5423 1.18551 56.0947 0 49.5834 0ZM32.2292 20.625C34.1905 20.625 36.1078 21.1626 37.7386 22.1699C39.3694 23.1771 40.6404 24.6087 41.391 26.2837C42.1416 27.9587 42.3379 29.8018 41.9553 31.58C41.5727 33.3582 40.6282 34.9915 39.2413 36.2735C37.8545 37.5555 36.0875 38.4285 34.1638 38.7822C32.2402 39.1359 30.2463 38.9544 28.4342 38.2606C26.6222 37.5668 25.0734 36.3918 23.9838 34.8844C22.8941 33.3769 22.3125 31.6047 22.3125 29.7917C22.3125 27.3605 23.3573 25.0289 25.217 23.3099C27.0768 21.5908 29.5991 20.625 32.2292 20.625ZM33.2556 67.4071C32.7982 67.8448 32.251 68.194 31.6461 68.4342C31.0412 68.6744 30.3905 68.8009 29.7322 68.8061C29.0738 68.8114 28.4209 68.6955 27.8115 68.465C27.2022 68.2346 26.6486 67.8942 26.183 67.4639C25.7175 67.0335 25.3493 66.5218 25.1 65.9585C24.8507 65.3952 24.7252 64.7917 24.7309 64.1832C24.7367 63.5746 24.8734 62.9732 25.1333 62.414C25.3932 61.8548 25.7709 61.349 26.2445 60.9262L65.9111 24.2596C66.3685 23.8218 66.9157 23.4727 67.5206 23.2325C68.1255 22.9922 68.7762 22.8658 69.4345 22.8605C70.0929 22.8552 70.7458 22.9712 71.3552 23.2016C71.9645 23.4321 72.5181 23.7724 72.9837 24.2028C73.4492 24.6331 73.8174 25.1449 74.0667 25.7081C74.316 26.2714 74.4415 26.8749 74.4358 27.4835C74.43 28.0921 74.2933 28.6935 74.0334 29.2527C73.7735 29.8119 73.3958 30.3176 72.9222 30.7404L33.2556 67.4071ZM66.9375 71.0417C64.9762 71.0417 63.0589 70.504 61.4281 69.4968C59.7973 68.4895 58.5263 67.0579 57.7757 65.3829C57.0251 63.7079 56.8288 61.8648 57.2114 60.0867C57.594 58.3085 58.5385 56.6752 59.9254 55.3932C61.3123 54.1112 63.0792 53.2382 65.0029 52.8845C66.9265 52.5308 68.9204 52.7123 70.7325 53.4061C72.5445 54.0999 74.0933 55.2748 75.1829 56.7823C76.2726 58.2897 76.8542 60.062 76.8542 61.875C76.8542 64.3061 75.8094 66.6377 73.9497 68.3568C72.0899 70.0759 69.5676 71.0417 66.9375 71.0417Z" fill="white"/>
</svg>
