<svg width="81" height="80" viewBox="0 0 81 80" fill="none" xmlns="http://www.w3.org/2000/svg">
<path d="M71.1423 58.6024C71.1423 58.6024 74.2489 62.8293 77.2702 69.4215C79.9604 75.2902 79.0011 80.7248 72.4805 79.9206C66.0726 79.1303 74.9419 73.7625 72.8082 69.4215C69.705 63.0909 65.4615 60.2971 64.987 60.3528C55.6397 61.541 36.4195 62.4286 23.8802 52.3275C6.79366 38.556 17.6669 17.8305 0 8.17457C28.7348 -7.01613 62.3242 0.895054 74.7849 16.1525C86.6789 30.7032 78.687 47.3047 73.9451 54.7011C73.9451 54.7011 51.0617 25.2658 39.7992 22.5778C53.192 33.1742 71.1423 58.6024 71.1423 58.6024Z" fill="white"/>
</svg>
